<svg width="20" height="20" viewBox="0 0 20 20" fill="none" xmlns="http://www.w3.org/2000/svg">
<rect width="20" height="20" rx="10" fill="#EFF2F4"/>
<g clip-path="url(#clip0_5521_153319)">
<path d="M10.9333 9.4L9.39993 9.46667L9.2666 9.73333C9.31105 10.2222 9.4266 11.2133 9.53327 11.2667C9.6666 11.3333 11.0666 10.8 11.3999 10.6667C11.6666 10.56 11.5999 10.1333 11.5333 9.93333L10.9333 9.4Z" fill="#00BF30"/>
<path d="M10.9333 9.4L9.39993 9.46667L9.2666 9.73333C9.31105 10.2222 9.4266 11.2133 9.53327 11.2667C9.6666 11.3333 11.0666 10.8 11.3999 10.6667C11.6666 10.56 11.5999 10.1333 11.5333 9.93333L10.9333 9.4Z" fill="black" fill-opacity="0.2"/>
<path d="M14.6666 6.06667C14.3466 4.89333 14.9999 6.47068 11.7333 6.8L11.4666 10.7333L9.33325 11.3333L9.53325 12.1333C9.99992 12.8667 11.4799 12.84 11.7999 12.7333C12.1199 12.6267 13.9555 11.8182 14.7999 11.8627C14.8444 10.5293 14.9866 7.24 14.6666 6.06667Z" fill="#00BF30"/>
<path d="M9.31809 11.9996C9.19252 11.9996 9.09082 11.8877 9.09082 11.7496V9.32972C9.09082 9.1916 9.19252 9.07973 9.31809 9.07973C9.44366 9.07973 9.54537 9.1916 9.54537 9.32972V11.7496C9.54537 11.8877 9.44366 11.9996 9.31809 11.9996Z" fill="#3A3A3C"/>
<path d="M11.1363 12.9996C10.6307 12.9996 9.09088 12.9996 9.09088 11.7496C9.09088 11.1203 9.77667 10.9378 10.3818 10.7765C10.842 10.654 11.3636 10.5153 11.3636 10.2497C11.3636 9.91532 11.3636 9.49971 10.2272 9.49971C9.96304 9.49971 9.67611 9.52533 9.3511 9.57721C7.47156 9.87282 5.34542 10.9646 5.3244 10.9759C5.21076 11.0346 5.07554 10.9809 5.02213 10.8559C4.96872 10.7309 5.01758 10.5822 5.13122 10.5234C5.22042 10.4772 7.33917 9.38847 9.2869 9.08223C9.63349 9.02661 9.94145 8.99973 10.2284 8.99973C11.3284 8.99973 11.8193 9.38534 11.8193 10.2497C11.8193 10.909 11.113 11.0971 10.4897 11.2628C10.0693 11.3746 9.54656 11.514 9.54656 11.7496C9.54656 11.9352 9.54656 12.4996 11.1375 12.4996C12.4028 12.4996 14.0642 11.799 14.5466 11.5827V6.12236C13.9767 6.3686 12.7414 6.85358 11.613 6.96857C11.488 6.98107 11.3772 6.87983 11.3659 6.74233C11.3545 6.60484 11.4466 6.48297 11.5716 6.47047C12.996 6.3261 14.6664 5.52864 14.6829 5.52051C14.7534 5.48677 14.8341 5.49426 14.8983 5.54051C14.9625 5.58676 15.0011 5.66551 15.0011 5.74988V11.7496C15.0011 11.849 14.9477 11.939 14.8647 11.979C14.7778 12.0208 12.721 12.9996 11.1375 12.9996H11.1363Z" fill="#3A3A3C"/>
<path d="M11.3999 3.8C11.0799 2.62667 7.13325 3.95556 5.33325 4.8L5.46659 10.5333C6.3777 10.1556 8.27992 9.50667 8.59992 9.4C8.91992 9.29333 10.6888 9.22222 11.5333 9.26667C11.5777 7.93333 11.7199 4.97333 11.3999 3.8Z" fill="#00BF30"/>
<path d="M11.5907 10.4997C11.4651 10.4997 11.3634 10.3878 11.3634 10.2497V4.25057C11.3634 3.91621 11.3634 3.49998 10.2271 3.49998C8.20321 3.49998 5.35265 4.96116 5.32367 4.97616C5.21003 5.03491 5.0748 4.98116 5.0214 4.85617C4.96799 4.73117 5.01685 4.58243 5.13049 4.52368C5.25094 4.46118 8.10094 3 10.2271 3C11.3271 3 11.818 3.38561 11.818 4.25057V10.2497C11.818 10.3878 11.7163 10.4997 11.5907 10.4997Z" fill="#3A3A3C"/>
<path d="M5.22727 17C5.1017 17 5 16.8881 5 16.75V3.25061C5 3.11249 5.1017 3 5.22727 3C5.35284 3 5.45455 3.11187 5.45455 3.24999V16.7494C5.45455 16.8875 5.35284 16.9994 5.22727 16.9994V17Z" fill="#3D3D3D"/>
</g>
<defs>
<clipPath id="clip0_5521_153319">
<rect width="10" height="14" fill="white" transform="translate(5 3)"/>
</clipPath>
</defs>
</svg>
