<svg width="20" height="20" viewBox="0 0 20 20" fill="none" xmlns="http://www.w3.org/2000/svg">
<rect width="20" height="20" rx="10" fill="#EFF2F4"/>
<g clip-path="url(#clip0_5521_153326)">
<path d="M6 6.555V8.055C5.915 8.065 5.835 8.075 5.75 8.09C5.58 8.115 5.415 8.14938 5.25 8.18938V6.68938C5.415 6.64938 5.58 6.61438 5.75 6.59C5.835 6.575 5.915 6.56438 6 6.555Z" fill="#3D3D3D"/>
<path d="M6 3.805V5.055C5.915 5.065 5.835 5.075 5.75 5.09C5.655 5.10438 5.56 5.12 5.47 5.14C5.395 5.155 5.32563 5.17 5.25 5.19V3.94C5.415 3.9 5.58 3.865 5.75 3.84063C5.835 3.82563 5.915 3.815 6 3.80563V3.805Z" fill="#3D3D3D"/>
<path d="M7.25 6.51C6.835 6.49 6.415 6.50438 6 6.555V5.055C6.415 5.005 6.835 4.99 7.25 5.01C7.335 5.015 7.415 5.02 7.5 5.03V6.53C7.415 6.52 7.335 6.515 7.25 6.51Z" fill="#3D3D3D"/>
<path d="M6 8.055C6.415 8.005 6.835 7.99 7.25 8.01C7.335 8.015 7.415 8.02 7.5 8.03V9.28C7.415 9.27 7.335 9.265 7.25 9.26C6.835 9.24 6.415 9.25437 6 9.305V8.055Z" fill="#3D3D3D"/>
<path d="M8.75 6.755C8.835 6.775 8.915 6.80062 9 6.825V8.325C8.915 8.3 8.835 8.275 8.75 8.255C8.34 8.14 7.92 8.065 7.5 8.03062V6.53062C7.92 6.565 8.34 6.64062 8.75 6.755Z" fill="#3D3D3D"/>
<path d="M9 4.075V5.325C8.915 5.3 8.835 5.275 8.75 5.255C8.34 5.14 7.92 5.065 7.5 5.03062V3.78C7.92 3.81437 8.34 3.89 8.75 4.00437C8.835 4.02437 8.915 4.05 9 4.07437V4.075Z" fill="#3D3D3D"/>
<path d="M9 6.825V5.325C9.17 5.375 9.335 5.435 9.5 5.5C9.745 5.595 9.995 5.68 10.25 5.745C10.335 5.77 10.415 5.79 10.5 5.805V7.305C10.415 7.29 10.335 7.27 10.25 7.245C9.995 7.18 9.745 7.095 9.5 7C9.335 6.935 9.17 6.875 9 6.825Z" fill="#3D3D3D"/>
<path d="M9.5 9.75C9.335 9.685 9.17 9.625 9 9.575V8.325C9.17 8.375 9.335 8.435 9.5 8.5C9.745 8.595 9.995 8.68 10.25 8.745C10.335 8.77 10.415 8.79 10.5 8.805V10.055C10.415 10.04 10.335 10.02 10.25 9.995C9.995 9.93 9.745 9.845 9.5 9.75Z" fill="#3D3D3D"/>
<path d="M12 7.495V8.995C11.915 8.995 11.835 8.995 11.75 8.99C11.33 8.97 10.91 8.905 10.5 8.805V7.305C10.91 7.405 11.33 7.47 11.75 7.49C11.835 7.495 11.915 7.495 12 7.495Z" fill="#3D3D3D"/>
<path d="M12 5.03V5.995C11.915 5.995 11.835 5.995 11.75 5.99C11.33 5.97 10.91 5.905 10.5 5.805V4.555C10.91 4.655 11.33 4.72 11.75 4.74C11.835 4.745 11.915 4.745 12 4.745V5.03Z" fill="#3D3D3D"/>
<path d="M13.25 7.41C12.88 7.47 12.5 7.5 12.125 7.5C12.085 7.5 12.04 7.5 12 7.495V5.995C12.04 6 12.085 6 12.125 6C12.5 6 12.88 5.97 13.25 5.91C13.335 5.895 13.42 5.88 13.5 5.865V7.365C13.42 7.37937 13.335 7.395 13.25 7.41Z" fill="#3D3D3D"/>
<path d="M13.5 9.47V10.115C13.42 10.1294 13.335 10.145 13.25 10.16C12.84 10.225 12.42 10.255 12 10.245V8.995C12.04 9 12.085 9 12.125 9C12.5 9 12.88 8.97 13.25 8.91C13.335 8.895 13.42 8.88 13.5 8.865V9.47Z" fill="#3D3D3D"/>
<path d="M13.5 7.365C13.925 7.285 14.345 7.16 14.75 7V8.5C14.345 8.66 13.925 8.785 13.5 8.865V7.365Z" fill="#3D3D3D"/>
<path d="M13.5 5.03V4.615C13.925 4.535 14.345 4.41 14.75 4.25V5.5C14.345 5.66 13.925 5.785 13.5 5.865V5.03Z" fill="#3D3D3D"/>
<path d="M12.1562 10.4969C12.1025 10.4969 12.0481 10.4969 11.9943 10.495C11.9112 10.495 11.8281 10.495 11.7356 10.49C11.3187 10.47 10.885 10.4062 10.4481 10.3C10.3643 10.285 10.28 10.2644 10.1837 10.2362C9.94246 10.1744 9.68934 10.0919 9.40934 9.98312C9.22371 9.91 9.07121 9.85687 8.92934 9.815L8.87246 9.79812C8.80996 9.77937 8.75121 9.76187 8.69246 9.74812C8.68934 9.7475 8.68559 9.74625 8.68246 9.74562C8.28934 9.63562 7.88434 9.56312 7.47934 9.52937C7.47621 9.52937 7.47309 9.52937 7.46996 9.52812C7.39434 9.51875 7.32184 9.51437 7.23559 9.50937C6.83434 9.49 6.42809 9.50437 6.02996 9.55312C5.95559 9.56187 5.87621 9.57125 5.79371 9.58625C5.79121 9.58625 5.78871 9.58687 5.78621 9.5875C5.63996 9.60875 5.48809 9.63937 5.30871 9.6825C5.17371 9.715 5.03934 9.6325 5.00684 9.49875C4.97434 9.36437 5.05684 9.22937 5.19059 9.19687C5.38371 9.15 5.54871 9.11687 5.70934 9.09312C5.80371 9.07625 5.89059 9.06562 5.97059 9.05625C6.39496 9.005 6.82996 8.98937 7.26121 9.01C7.35371 9.015 7.43621 9.02062 7.52434 9.03062C7.95809 9.06687 8.39059 9.14437 8.81184 9.26187C8.88309 9.27875 8.94996 9.29875 9.01496 9.31812L9.06996 9.33437C9.22621 9.38 9.39184 9.43812 9.59121 9.51625C9.85246 9.6175 10.0887 9.695 10.3112 9.75187C10.3143 9.7525 10.3168 9.75312 10.32 9.75437C10.4031 9.77875 10.4743 9.79562 10.5437 9.80812C10.5487 9.80875 10.5543 9.81 10.5593 9.81125C10.9681 9.91062 11.3725 9.97062 11.7618 9.98937C11.8418 9.99375 11.9187 9.99375 12 9.99375C12.4037 10.0031 12.8093 9.97562 13.2106 9.91187C13.2906 9.8975 13.375 9.8825 13.455 9.86812C13.7993 9.80312 14.1506 9.705 14.5 9.57687V4.60812C14.1812 4.71687 13.8618 4.80125 13.5462 4.86062C13.4643 4.87562 13.3793 4.89062 13.2937 4.90625C12.9093 4.96875 12.5175 5 12.125 5C12.085 5 12.0362 5 11.9862 4.995C11.9025 4.995 11.8231 4.995 11.7356 4.99C11.3187 4.97 10.885 4.90625 10.4481 4.8C10.3643 4.785 10.28 4.76437 10.1837 4.73625C9.94246 4.67437 9.68934 4.59187 9.40934 4.48312C9.22371 4.41 9.07121 4.35687 8.92934 4.315L8.87246 4.29812C8.80996 4.27937 8.75121 4.26187 8.69246 4.24812C8.68934 4.2475 8.68559 4.24625 8.68246 4.24562C8.28934 4.13562 7.88434 4.06312 7.47934 4.02937C7.47621 4.02937 7.47309 4.02937 7.46996 4.02812C7.39434 4.01875 7.32184 4.01437 7.23559 4.00937C6.83434 3.99 6.42809 4.00437 6.02996 4.05312C5.95559 4.06187 5.87621 4.07125 5.79371 4.08625C5.79121 4.08625 5.78871 4.08687 5.78621 4.0875C5.63996 4.10875 5.48809 4.13937 5.30871 4.1825C5.17371 4.215 5.03934 4.1325 5.00684 3.99875C4.97434 3.86437 5.05684 3.72937 5.19059 3.69687C5.38371 3.65 5.54871 3.61687 5.70934 3.59312C5.80371 3.57625 5.89059 3.56562 5.97059 3.55625C6.39496 3.505 6.82996 3.48937 7.26121 3.51C7.35371 3.51562 7.43621 3.52062 7.52434 3.53125C7.95809 3.5675 8.39059 3.645 8.81184 3.7625C8.88309 3.77937 8.94996 3.79937 9.01496 3.81875L9.06996 3.835C9.22621 3.88062 9.39184 3.93875 9.59121 4.01687C9.85246 4.11812 10.0887 4.19562 10.3112 4.2525C10.3143 4.25312 10.3168 4.25375 10.32 4.255C10.4031 4.27937 10.4743 4.29625 10.5437 4.30875C10.5487 4.30937 10.5543 4.31062 10.5593 4.31187C10.9681 4.41125 11.3725 4.47125 11.7618 4.49C11.8418 4.49437 11.9187 4.49437 12 4.49437C12.01 4.49437 12.02 4.49437 12.03 4.49625C12.055 4.49937 12.0918 4.49937 12.125 4.49937C12.4906 4.49937 12.8556 4.47 13.21 4.4125C13.2906 4.39812 13.3756 4.38312 13.455 4.36812C13.8512 4.29312 14.2568 4.175 14.6581 4.01625C14.735 3.98562 14.8218 3.99562 14.8906 4.04187C14.9593 4.08812 15 4.16562 15 4.24875V9.74875C15 9.85125 14.9375 9.94375 14.8418 9.98125C14.4112 10.1512 13.975 10.2787 13.5462 10.3594C13.4643 10.3744 13.3793 10.3894 13.2937 10.405C12.9125 10.4656 12.5312 10.4956 12.1556 10.4956L12.1562 10.4969Z" fill="#3D3D3D"/>
<path d="M5.25 17C5.11187 17 5 16.8881 5 16.75V3.25C5 3.11187 5.11187 3 5.25 3C5.38813 3 5.5 3.11187 5.5 3.25V16.75C5.5 16.8881 5.38813 17 5.25 17Z" fill="#3D3D3D"/>
</g>
<defs>
<clipPath id="clip0_5521_153326">
<rect width="10" height="14" fill="white" transform="translate(5 3)"/>
</clipPath>
</defs>
</svg>
