<svg width="14" height="15" viewBox="0 0 14 15" fill="none" xmlns="http://www.w3.org/2000/svg">
<g clip-path="url(#clip0_6769_4064)">
<path fill-rule="evenodd" clip-rule="evenodd" d="M10.9309 0.531144C9.28437 0.82285 8.36118 2.44338 8.93503 4.03447C9.10159 4.49619 9.43155 5.11887 9.81921 5.70288C9.98041 5.94566 10.1123 6.15414 10.1123 6.16611C10.1123 6.17802 9.79027 6.18784 9.39665 6.18784C8.33779 6.18784 7.85579 6.34534 7.30398 6.87171C6.00775 8.10809 6.47708 10.2217 8.18831 10.8541C8.46529 10.9564 8.59825 10.9655 10.2169 10.992L11.949 11.0204L12.1644 11.1698C12.4869 11.3934 12.6333 11.6464 12.6571 12.0213C12.6801 12.3815 12.6032 12.5894 12.351 12.8487C11.9967 13.2129 12.1886 13.1961 8.30945 13.2006L4.82901 13.2045L4.60365 13.5138C4.47971 13.684 4.25997 13.9627 4.11539 14.1333C3.97076 14.3038 3.85248 14.4563 3.85248 14.4721C3.85248 14.4879 5.62715 14.5004 7.79615 14.5C12.1384 14.499 12.1498 14.4983 12.7208 14.194C13.1461 13.9673 13.6178 13.4468 13.7936 13.0104C13.9546 12.6105 14.0097 12.0108 13.9234 11.5963C13.7514 10.7696 13.1224 10.0804 12.3006 9.81802C11.9194 9.69638 11.8725 9.69332 10.3726 9.69302C9.44332 9.69287 8.7596 9.67174 8.64392 9.63964C8.39949 9.57173 8.06947 9.27487 7.95219 9.01726C7.83556 8.76121 7.83581 8.42158 7.95279 8.16398C8.06622 7.91434 8.45583 7.56324 8.66616 7.52117C8.75229 7.50395 9.42509 7.48988 10.1613 7.48988C11.7184 7.48988 11.4916 7.57321 12.1491 6.75978C12.6232 6.17337 13.1215 5.42745 13.4433 4.82245C14.0489 3.68407 14.1215 2.79143 13.6827 1.88111C13.518 1.53937 12.9778 0.987608 12.6409 0.817041C12.1191 0.552778 11.4449 0.440051 10.9309 0.531144ZM11.9071 1.93354C12.4171 2.15904 12.6379 2.51289 12.6399 3.10802C12.6412 3.49498 12.6316 3.52833 12.3578 4.08455C12.0866 4.63546 11.458 5.5869 11.3651 5.5869C11.2688 5.5869 10.6955 4.72671 10.4028 4.14299C10.1557 3.65052 10.0887 3.46638 10.072 3.23402C9.99744 2.20381 10.9661 1.51739 11.9071 1.93354ZM2.16719 7.54211C1.11795 7.728 0.334578 8.44767 0.0730692 9.46597C-0.0142674 9.8062 -0.0246835 10.3172 0.0492319 10.6377C0.212237 11.3447 0.758942 12.3012 1.58864 13.331C2.50437 14.4676 2.56902 14.4946 3.08142 13.9555C3.89134 13.1036 4.74783 11.8322 5.0167 11.0829C5.28832 10.3259 5.25552 9.59011 4.919 8.89207C4.75429 8.55033 4.2141 7.99857 3.87722 7.828C3.3554 7.56374 2.6812 7.45101 2.16719 7.54211ZM3.14342 8.9445C3.64455 9.1661 3.87336 9.52521 3.87587 10.0939C3.87727 10.4171 3.85438 10.5185 3.71176 10.8201C3.56077 11.1393 2.95162 12.0914 2.70243 12.3975L2.60052 12.5227L2.49861 12.3975C2.44257 12.3287 2.22984 12.0245 2.02587 11.7215C1.35457 10.7242 1.19542 10.2298 1.3734 9.69397C1.61743 8.95927 2.41398 8.62195 3.14342 8.9445Z" fill="#808080"/>
</g>
<defs>
<clipPath id="clip0_6769_4064">
<rect width="14" height="14" fill="white" transform="translate(0 0.5)"/>
</clipPath>
</defs>
</svg>
